<?xml version="1.0" encoding="utf-8"?>
<!-- Generator: Adobe Illustrator 19.2.0, SVG Export Plug-In . SVG Version: 6.00 Build 0)  -->
<svg version="1.1" id="Layer_1" xmlns="http://www.w3.org/2000/svg" xmlns:xlink="http://www.w3.org/1999/xlink" x="0px" y="0px"
	 viewBox="0 0 990 199.2" style="enable-background:new 0 0 990 199.2;" xml:space="preserve">
<style type="text/css">
	.st0{clip-path:url(#SVGID_2_);}
	.st1{fill:#FFFFFF;}
	.st2{fill:#EA3E3D;}
	.st3{fill:none;}
</style>
<g>
	<defs>
		<rect id="SVGID_1_" x="-4.4" width="999.4" height="199.2"/>
	</defs>
	<clipPath id="SVGID_2_">
		<use xlink:href="#SVGID_1_"  style="overflow:visible;"/>
	</clipPath>
	<g class="st0">
		<g>
			<path class="st1" d="M996,73C662.5-41.7,329.1,148.2-4.4,33.4c0,14.7,0,29.5,0,44.2C329.1,196.7,662.5,11.2,996,130.4
				C996,111.3,996,92.1,996,73z"/>
			<path class="st2" d="M996,130.4C662.5,11.2,329.1,196.7-4.4,77.6c0,14.7,0,29.5,0,44.2c333.5,123.6,666.9-57.5,1000.4,66
				C996,168.6,996,149.5,996,130.4z"/>
			<path class="st1" d="M996-41.7C662.5-147.7,329.1,51-4.4-54.9c0,14.7,0,29.5,0,44.2C329.1,99.6,662.5-94.7,996,15.6
				C996-3.5,996-22.6,996-41.7z"/>
			<path class="st2" d="M996,15.6C662.5-94.7,329.1,99.6-4.4-10.8c0,14.7,0,29.5,0,44.2C329.1,148.2,662.5-41.7,996,73
				C996,53.9,996,34.8,996,15.6z"/>
			<path class="st1" d="M996-156.5C662.5-253.6,329.1-46.1-4.4-143.3c0,14.7,0,29.5,0,44.2C329.1,2.4,662.5-200.7,996-99.1
				C996-118.2,996-137.4,996-156.5z"/>
			<path class="st2" d="M996-99.1C662.5-200.7,329.1,2.4-4.4-99.1c0,14.7,0,29.5,0,44.2C329.1,51,662.5-147.7,996-41.7
				C996-60.9,996-80,996-99.1z"/>
			<path class="st1" d="M996-271.3c-333.5-88.4-666.9,128-1000.4,39.6c0,14.7,0,29.5,0,44.2C329.1-94.7,662.5-306.6,996-213.9
				C996-233,996-252.1,996-271.3z"/>
			<path class="st2" d="M996-213.9C662.5-306.6,329.1-94.7-4.4-187.5c0,14.7,0,29.5,0,44.2C329.1-46.1,662.5-253.6,996-156.5
				C996-175.6,996-194.7,996-213.9z"/>
			<path class="st1" d="M996-386C662.5-465.6,329.1-240.4-4.4-320c0,14.7,0,29.5,0,44.2C329.1-191.9,662.5-412.6,996-328.6
				C996-347.8,996-366.9,996-386z"/>
			<path class="st2" d="M996-328.6C662.5-412.6,329.1-191.9-4.4-275.8c0,14.7,0,29.5,0,44.2c333.5,88.4,666.9-128,1000.4-39.6
				C996-290.4,996-309.5,996-328.6z"/>
		</g>
	</g>
</g>
<rect class="st3" width="990" height="199.2"/>
</svg>
