<?xml version="1.0" encoding="utf-8"?>
<!-- Generator: Adobe Illustrator 19.2.0, SVG Export Plug-In . SVG Version: 6.00 Build 0)  -->
<svg version="1.1" id="Layer_1" xmlns="http://www.w3.org/2000/svg" xmlns:xlink="http://www.w3.org/1999/xlink" x="0px" y="0px"
	 viewBox="0 0 995.5 263.6" style="enable-background:new 0 0 995.5 263.6;" xml:space="preserve">
<style type="text/css">
	.st0{clip-path:url(#SVGID_2_);}
	.st1{fill:#FFFFFF;}
	.st2{fill:#EA3E3D;}
	.st3{fill:none;}
</style>
<g>
	<defs>
		<rect id="SVGID_1_" width="1002" height="263.6"/>
	</defs>
	<clipPath id="SVGID_2_">
		<use xlink:href="#SVGID_1_"  style="overflow:visible;"/>
	</clipPath>
	<g class="st0">
		<g>
			<path class="st1" d="M1000.4,501.6C666.9,400.1,333.5,603.2,0,501.6c0,16.9,0,33.9,0,50.8c333.5,101.6,666.9-101.6,1000.4,0
				C1000.4,535.5,1000.4,518.6,1000.4,501.6z"/>
			<path class="st2" d="M1000.4,552.4C666.9,450.9,333.5,654,0,552.4c0,16.9,0,33.9,0,50.8c333.5,101.6,666.9-101.6,1000.4,0
				C1000.4,586.3,1000.4,569.3,1000.4,552.4z"/>
			<path class="st1" d="M1000.4,400.1C666.9,298.5,333.5,501.6,0,400.1c0,16.9,0,33.9,0,50.8c333.5,101.6,666.9-101.6,1000.4,0
				C1000.4,433.9,1000.4,417,1000.4,400.1z"/>
			<path class="st2" d="M1000.4,450.9C666.9,349.3,333.5,552.4,0,450.9c0,16.9,0,33.9,0,50.8c333.5,101.6,666.9-101.6,1000.4,0
				C1000.4,484.7,1000.4,467.8,1000.4,450.9z"/>
			<path class="st1" d="M1000.4,298.5C666.9,197,333.5,400.1,0,298.5c0,16.9,0,33.9,0,50.8c333.5,101.6,666.9-101.6,1000.4,0
				C1000.4,332.4,1000.4,315.4,1000.4,298.5z"/>
			<path class="st2" d="M1000.4,349.3C666.9,247.7,333.5,450.9,0,349.3c0,16.9,0,33.9,0,50.8c333.5,101.6,666.9-101.6,1000.4,0
				C1000.4,383.1,1000.4,366.2,1000.4,349.3z"/>
			<path class="st1" d="M1000.4,197C666.9,95.4,333.5,298.5,0,197c0,16.9,0,33.9,0,50.8c333.5,101.6,666.9-101.6,1000.4,0
				C1000.4,230.8,1000.4,213.9,1000.4,197z"/>
			<path class="st2" d="M1000.4,247.7C666.9,146.2,333.5,349.3,0,247.7c0,16.9,0,33.9,0,50.8c333.5,101.6,666.9-101.6,1000.4,0
				C1000.4,281.6,1000.4,264.7,1000.4,247.7z"/>
			<path class="st1" d="M1000.4,95.4C666.9-6.1,333.5,197,0,95.4c0,16.9,0,33.9,0,50.8c333.5,101.6,666.9-101.6,1000.4,0
				C1000.4,129.3,1000.4,112.3,1000.4,95.4z"/>
			<path class="st2" d="M1000.4,146.2C666.9,44.6,333.5,247.7,0,146.2C0,163.1,0,180,0,197c333.5,101.6,666.9-101.6,1000.4,0
				C1000.4,180,1000.4,163.1,1000.4,146.2z"/>
		</g>
	</g>
</g>
<rect class="st3" width="995.5" height="260.1"/>
</svg>
