<?xml version="1.0" encoding="utf-8"?>
<!-- Generator: Adobe Illustrator 19.2.0, SVG Export Plug-In . SVG Version: 6.00 Build 0)  -->
<svg version="1.1" id="Layer_1" xmlns="http://www.w3.org/2000/svg" xmlns:xlink="http://www.w3.org/1999/xlink" x="0px" y="0px"
	 viewBox="0 0 127.2 41.2" style="enable-background:new 0 0 127.2 41.2;" xml:space="preserve">
<style type="text/css">
	.st0{fill:none;stroke:#FFFFFF;stroke-width:2;stroke-miterlimit:10;}
	.st1{fill:none;}
	.st2{fill:#FFFFFF;}
	.st3{font-family:'Helvetica-Bold';}
	.st4{font-size:12.093px;}
	.st5{clip-path:url(#SVGID_2_);}
</style>
<g>
	<path class="st0" d="M101.4,2c-2.5,0-4.1,0.6-5.1,1.6H2.9V19h93.4c1.1,1,2.7,1.6,5.1,1.6c6.5,0,11.7-4.2,11.7-9.3
		C113.1,6.2,107.9,2,101.4,2z"/>
	<rect x="1" y="25.7" class="st1" width="102.7" height="14.1"/>
	<text transform="matrix(1 0 0 1 1.0013 34.4008)" class="st2 st3 st4">Drag to vote</text>
	<g>
		<g>
			<line class="st0" x1="83" y1="30.6" x2="76.6" y2="30.6"/>
			<g>
				<polygon class="st2" points="82.2,27.6 87.3,30.6 82.2,33.6 				"/>
			</g>
		</g>
	</g>
	<g>
		<defs>
			<rect id="SVGID_1_" x="90.2" y="9.3" width="36" height="26.2"/>
		</defs>
		<clipPath id="SVGID_2_">
			<use xlink:href="#SVGID_1_"  style="overflow:visible;"/>
		</clipPath>
		<g class="st5">
			<g>
				<path class="st2" d="M105.1,12.5c0.5,0,0.8,0.1,1.1,0.4c0.6,0.6,0.7,1.8,0.6,2.3v13.1c0,0.3,0.3,0.5,0.6,0.5c0,0,0,0,0,0
					c0.3,0,0.6-0.2,0.6-0.5l0.1-0.7v-3.1c0,0,0-0.6,0.4-1c0.2-0.2,0.6-0.3,1.1-0.3c1.3,0,1.5,0.9,1.5,1.4v3.7c0,0.3,0.3,0.5,0.6,0.5
					c0.3,0,0.6-0.2,0.6-0.5v-3.8c0-0.4,0.2-1.3,1.5-1.3c1.3,0,1.5,0.9,1.5,1.4v3.7c0,0.3,0.3,0.5,0.6,0.5c0.3,0,0.6-0.2,0.6-0.5
					v-3.8c0-0.4,0.2-1.3,1.5-1.3c0.5,0,0.8,0.1,1.1,0.3c0.4,0.4,0.4,1,0.4,1V45L103,45.2l-8.3-13.4c0,0-1.7-2.3-0.1-3.4
					c0.4-0.3,0.8-0.4,1.1-0.4c1.1,0,1.9,1.2,2.2,1.6l0,0.1c0.3,0.4,1.5,2.4,1.9,3.1c0.7,1.1,1.4,1.7,2.1,1.7c0.3,0,0.6-0.1,0.8-0.3
					c0.4-0.4,0.6-1.2,0.6-2.3c-0.1-1.7,0-16.6,0-16.7c0,0,0-1.4,0.7-2.1C104.3,12.6,104.6,12.5,105.1,12.5 M105.1,10.5
					c-1.2,0-2,0.5-2.5,0.9c-1.3,1.2-1.3,3.1-1.3,3.6l0,0.3c0,4.9,0,13.1,0,15.7c-0.5-0.9-1.4-2.3-1.7-2.7l0-0.1
					c-0.4-0.6-1.8-2.4-3.8-2.4c-0.8,0-1.5,0.3-2.3,0.8c-0.8,0.6-1.3,1.4-1.5,2.3c-0.3,1.7,0.7,3.3,1.1,3.8l8.3,13.4l0.6,1l1.1,0
					l16.4-0.2l2,0v-2V24.5c0-0.4-0.1-1.6-1.1-2.5c-0.6-0.6-1.4-0.9-2.4-0.9c-0.9,0-1.6,0.2-2.1,0.6c-0.6-0.4-1.3-0.6-2.1-0.6
					c-0.8,0-1.5,0.2-2.1,0.6c-0.6-0.4-1.3-0.6-2.1-0.6c-0.3,0-0.5,0-0.8,0.1v-6c0-0.6,0-2.5-1.2-3.8C107.1,11,106.3,10.5,105.1,10.5
					L105.1,10.5z"/>
			</g>
			<g>
				<path class="st1" d="M107.1,18.8"/>
			</g>
			<g>
				<path class="st1" d="M104.2,18.8"/>
			</g>
		</g>
	</g>
</g>
</svg>
