<?xml version="1.0" encoding="utf-8"?>
<!-- Generator: Adobe Illustrator 19.2.0, SVG Export Plug-In . SVG Version: 6.00 Build 0)  -->
<svg version="1.1" id="Layer_1" xmlns="http://www.w3.org/2000/svg" xmlns:xlink="http://www.w3.org/1999/xlink" x="0px" y="0px"
	 viewBox="0 0 507.9 92.3" style="enable-background:new 0 0 507.9 92.3;" xml:space="preserve">
<style type="text/css">
	.st0{fill:#FFFFFF;}
</style>
<g>
	<polygon class="st0" points="48.3,5 58.5,36.4 91.5,36.4 64.8,55.9 75,87.3 48.3,67.9 21.5,87.3 31.7,55.9 5,36.4 38.1,36.4 	"/>
	<polygon class="st0" points="185.4,5 195.6,36.4 228.7,36.4 201.9,55.9 212.1,87.3 185.4,67.9 158.7,87.3 168.9,55.9 142.1,36.4 
		175.2,36.4 	"/>
	<polygon class="st0" points="322.5,5 332.7,36.4 365.8,36.4 339,55.9 349.3,87.3 322.5,67.9 295.8,87.3 306,55.9 279.2,36.4 
		312.3,36.4 	"/>
	<polygon class="st0" points="459.6,5 469.9,36.4 502.9,36.4 476.2,55.9 486.4,87.3 459.6,67.9 432.9,87.3 443.1,55.9 416.4,36.4 
		449.4,36.4 	"/>
</g>
</svg>
